<svg version="1.1" id="Layer_1" xmlns="http://www.w3.org/2000/svg" xmlns:xlink="http://www.w3.org/1999/xlink" x="0px" y="0px"
	 width="100%" viewBox="0 0 500 500" enable-background="new 0 0 500 500" xml:space="preserve">
<path fill="#000000" opacity="1.000000" stroke="none" 
	d="
M287.000000,501.000000 
	C191.333359,501.000000 96.166710,501.000000 1.000051,501.000000 
	C1.000034,334.333405 1.000034,167.666794 1.000017,1.000141 
	C167.666565,1.000094 334.333130,1.000094 500.999756,1.000047 
	C500.999847,167.666519 500.999847,334.333038 500.999939,500.999786 
	C429.833344,501.000000 358.666656,501.000000 287.000000,501.000000 
M369.946228,100.012688 
	C369.946228,100.012688 369.984314,100.051720 369.947327,99.353104 
	C368.983429,98.247765 368.205353,96.860847 367.025726,96.082466 
	C358.983398,90.775711 351.182831,84.982452 342.702148,80.480370 
	C299.656982,57.629314 253.981110,51.929031 206.723389,62.627762 
	C163.775726,72.350739 128.057449,94.914551 100.498329,129.315399 
	C62.511803,176.732361 50.247475,231.078293 61.528790,290.251770 
	C70.196693,335.717163 94.050041,372.893707 129.847885,402.100983 
	C159.799026,426.538025 194.527588,440.355774 232.863983,443.680908 
	C260.011505,446.035583 287.071808,443.780975 313.112061,434.471405 
	C367.226868,415.124908 406.067322,379.318024 429.104980,326.618439 
	C444.339081,291.769806 447.717621,255.304718 441.623901,218.114853 
	C434.339355,173.657425 412.922363,136.618484 379.694611,106.372993 
	C376.848816,103.782600 373.185486,102.090370 369.946228,100.012688 
z"/>
<path fill="#313131" opacity="1.000000" stroke="none" 
	d="
M369.901917,99.980911 
	C373.185486,102.090370 376.848816,103.782600 379.694611,106.372993 
	C412.922363,136.618484 434.339355,173.657425 441.623901,218.114853 
	C447.717621,255.304718 444.339081,291.769806 429.104980,326.618439 
	C406.067322,379.318024 367.226868,415.124908 313.112061,434.471405 
	C287.071808,443.780975 260.011505,446.035583 232.863983,443.680908 
	C194.527588,440.355774 159.799026,426.538025 129.847885,402.100983 
	C94.050041,372.893707 70.196693,335.717163 61.528790,290.251770 
	C50.247475,231.078293 62.511803,176.732361 100.498329,129.315399 
	C128.057449,94.914551 163.775726,72.350739 206.723389,62.627762 
	C253.981110,51.929031 299.656982,57.629314 342.702148,80.480370 
	C351.182831,84.982452 358.983398,90.775711 367.025726,96.082466 
	C368.205353,96.860847 368.983429,98.247765 369.631165,99.619095 
	C359.479797,93.703835 349.940948,86.977615 339.756104,81.439369 
	C303.274872,61.601799 263.929443,55.702965 223.320206,61.468422 
	C180.963760,67.481934 144.374756,86.084625 114.255325,117.061180 
	C96.960854,134.847809 83.444420,154.990601 74.000534,177.799667 
	C63.116020,204.088196 57.789860,231.478592 60.051521,260.019714 
	C60.888733,270.584930 61.721294,281.249969 63.884373,291.591644 
	C69.902565,320.364563 82.295921,346.281586 100.553886,369.393982 
	C121.095665,395.397400 146.670959,414.878510 177.074005,427.788086 
	C212.306900,442.748474 249.011063,446.124481 286.502777,439.082062 
	C338.821533,429.254578 379.983612,401.598511 409.777008,357.904938 
	C437.934753,316.610107 447.636780,270.567902 440.046967,221.115509 
	C433.905823,181.102036 416.488953,146.600952 388.137665,117.686401 
	C382.207794,111.638748 375.988068,105.875320 369.901917,99.980911 
z"/>
<path fill="#000000" opacity="1.000000" stroke="none" 
	d="
M369.924072,99.996796 
	C375.988068,105.875320 382.207794,111.638748 388.137665,117.686401 
	C416.488953,146.600952 433.905823,181.102036 440.046967,221.115509 
	C447.636780,270.567902 437.934753,316.610107 409.777008,357.904938 
	C379.983612,401.598511 338.821533,429.254578 286.502777,439.082062 
	C249.011063,446.124481 212.306900,442.748474 177.074005,427.788086 
	C146.670959,414.878510 121.095665,395.397400 100.553886,369.393982 
	C82.295921,346.281586 69.902565,320.364563 63.884373,291.591644 
	C61.721294,281.249969 60.888733,270.584930 60.051521,260.019714 
	C57.789860,231.478592 63.116020,204.088196 74.000534,177.799667 
	C83.444420,154.990601 96.960854,134.847809 114.255325,117.061180 
	C144.374756,86.084625 180.963760,67.481934 223.320206,61.468422 
	C263.929443,55.702965 303.274872,61.601799 339.756104,81.439369 
	C349.940948,86.977615 359.479797,93.703835 369.649658,99.968399 
	C369.984314,100.051720 369.946228,100.012688 369.924072,99.996796 
M89.021706,257.789825 
	C95.174728,257.900330 97.171120,262.122589 98.126762,267.845703 
	C98.987381,260.841248 103.003838,257.807404 109.362656,256.805847 
	C102.774452,255.726593 99.354851,252.247864 98.283638,245.756744 
	C97.371002,252.053268 93.691612,255.324646 88.100952,256.704193 
	C88.241035,256.994629 88.381119,257.285065 89.021706,257.789825 
M396.589752,255.692795 
	C395.726898,255.962830 394.864075,256.232880 394.001221,256.502899 
	C393.721039,256.971771 393.440857,257.440643 393.160645,257.909515 
	C400.636993,256.944611 402.838287,261.655457 404.953430,267.327667 
	C405.307526,260.544769 409.333740,257.797699 415.481384,256.719391 
	C408.422028,256.137329 406.123871,251.531952 405.343231,247.460632 
	C402.710022,250.029068 399.949188,252.721954 396.589752,255.692795 
z"/>
<path fill="#323232" opacity="1.000000" stroke="none" 
	d="
M88.771454,257.682678 
	C88.381119,257.285065 88.241035,256.994629 88.100952,256.704193 
	C93.691612,255.324646 97.371002,252.053268 98.283638,245.756744 
	C99.354851,252.247864 102.774452,255.726593 109.362656,256.805847 
	C103.003838,257.807404 98.987381,260.841248 98.126762,267.845703 
	C97.171120,262.122589 95.174728,257.900330 88.771454,257.682678 
z"/>
<path fill="#323232" opacity="1.000000" stroke="none" 
	d="
M396.889069,255.553802 
	C399.949188,252.721954 402.710022,250.029068 405.343231,247.460632 
	C406.123871,251.531952 408.422028,256.137329 415.481384,256.719391 
	C409.333740,257.797699 405.307526,260.544769 404.953430,267.327667 
	C402.838287,261.655457 400.636993,256.944611 393.160645,257.909515 
	C393.440857,257.440643 393.721039,256.971771 394.001221,256.502899 
	C394.864075,256.232880 395.726898,255.962830 396.889069,255.553802 
z"/>
</svg>